<svg width="141" height="36" fill="currentColor" xmlns="http://www.w3.org/2000/svg"><g clip-path="url(#a)"><path d="M18.95 35.282a13.863 13.863 0 0 0 9.894-13.257l-.075-18.569a3.033 3.033 0 0 0-3.956-2.83l-22.2 6.83A2.988 2.988 0 0 0 .5 10.306V22.12c.075 9.337 9.344 15.969 18.45 13.163Z" fill="#8979E8"></path><path d="M45.087 26.47a6.703 6.703 0 0 1-1.462-.538 8.883 8.883 0 0 1-1.075-.656 8.146 8.146 0 0 1-.681-.532l-.232-.25v8.925H38.27V10.201h3.368v1.874c.157-.156.369-.356.625-.624a7.66 7.66 0 0 1 1.782-.988 6.762 6.762 0 0 1 2.775-.625 7.457 7.457 0 0 1 5.562 2.456 8.687 8.687 0 0 1 0 11.913 7.5 7.5 0 0 1-7.319 2.244l.025.018Zm-1.969-12a5.625 5.625 0 0 0 0 7.612 4.458 4.458 0 0 0 6.8 0 5.625 5.625 0 0 0 0-7.613 4.456 4.456 0 0 0-6.8 0ZM60.525 26.352h-3.35V2.789h3.35v23.563ZM73.556 26.351v-1.675l-.218.213a7.022 7.022 0 0 1-.625.487c-.32.235-.659.444-1.013.625a7.053 7.053 0 0 1-1.362.488 6.815 6.815 0 0 1-1.663.212 5.944 5.944 0 0 1-4.087-1.431A4.257 4.257 0 0 1 62.956 22a4.694 4.694 0 0 1 1.25-3.337 5.8 5.8 0 0 1 3.438-1.707l5.9-1.018a2.812 2.812 0 0 0-.944-2.157 3.438 3.438 0 0 0-2.425-.868 5 5 0 0 0-2.325.53 4.051 4.051 0 0 0-1.437 1.082l-.444.575-2.188-2.187c.07-.088.157-.2.275-.338.24-.258.498-.5.77-.725a9.74 9.74 0 0 1 1.25-.925 7.37 7.37 0 0 1 1.78-.731 8.301 8.301 0 0 1 2.294-.319 6.875 6.875 0 0 1 4.85 1.75 5.626 5.626 0 0 1 1.875 4.313v10.43l-3.319-.018ZM72.4 22.432a4.9 4.9 0 0 0 1.156-3.493v-.325l-5.225.837a2.681 2.681 0 0 0-1.462.738 2.018 2.018 0 0 0-.556 1.45 1.75 1.75 0 0 0 .78 1.412c.608.44 1.346.66 2.095.625a4.206 4.206 0 0 0 3.206-1.244h.006ZM83.369 11.874l.212-.212a5.52 5.52 0 0 1 .625-.488 8.19 8.19 0 0 1 1.013-.625c.436-.209.893-.374 1.362-.493a6.376 6.376 0 0 1 1.669-.22 6.207 6.207 0 0 1 4.737 1.92 7.2 7.2 0 0 1 1.82 5.162v9.413h-3.37v-9.394a4.012 4.012 0 0 0-1.106-2.894 3.682 3.682 0 0 0-2.756-1.15 3.97 3.97 0 0 0-3.063 1.25 4.95 4.95 0 0 0-1.143 3.481v8.75H80V10.2h3.369v1.675ZM109.326 24.676l-.213.212c-.197.177-.406.34-.625.488-.32.235-.659.444-1.012.625-.436.21-.893.373-1.363.487a6.84 6.84 0 0 1-1.675.213 6.201 6.201 0 0 1-4.737-1.919 7.156 7.156 0 0 1-1.82-5.15v-9.431h3.37v9.412a4.003 4.003 0 0 0 1.106 2.894 3.671 3.671 0 0 0 2.756 1.15 3.972 3.972 0 0 0 3.063-1.25 4.952 4.952 0 0 0 1.143-3.481v-8.75h3.369v16.15h-3.369l.007-1.65ZM136.826 16.937a4.439 4.439 0 0 0-.913-3.019 3.121 3.121 0 0 0-2.456-1.025 3.321 3.321 0 0 0-2.637 1.25 5.211 5.211 0 0 0-1.063 3.463v8.75h-3.369v-9.419a4.372 4.372 0 0 0-.912-3.019 3.125 3.125 0 0 0-2.456-1.025 3.318 3.318 0 0 0-2.638 1.25 5.214 5.214 0 0 0-1.056 3.463v8.75h-3.369V10.199h3.369v1.675c.173-.199.356-.389.55-.568a6.873 6.873 0 0 1 1.475-.894 5.206 5.206 0 0 1 2.343-.556 6.243 6.243 0 0 1 1.875.268c.505.141.981.37 1.407.675.324.247.629.52.912.813.202.209.386.435.55.675l.163.262c.068-.099.143-.193.225-.28.1-.12.325-.338.669-.626a6.77 6.77 0 0 1 1.112-.831 6.711 6.711 0 0 1 1.55-.625 6.877 6.877 0 0 1 2-.287 5.663 5.663 0 0 1 4.444 1.806c1.075 1.206 1.618 2.962 1.618 5.275v9.412h-3.368l-.025-9.456Z" fill="#000"></path></g><defs><clipPath id="a"><path fill="#fff" transform="translate(.5 .5)" d="M0 0h139.694v35.431H0z"></path></clipPath></defs></svg>
