<svg width="112" height="40" fill="none" xmlns="http://www.w3.org/2000/svg">
  <g clip-path="url(#a)">
    <path d="M45.911 19.5483c0 1.3412-.3263 2.3562-.9546 3.0692-.6404.6887-1.45 1.0391-2.5134 1.0391-.9304 0-1.6675-.2537-2.187-.7491-.5196-.4834-.7734-1.2688-.7734-2.3321l.0242-7.7454-3.0813-.0121-.0241 7.9266c0 1.1359.2175 2.1388.6646 2.9725.447.8217 1.0754 1.4742 1.8729 1.9334.7975.4591 1.7037.6766 2.7066.6887h.0242c1.2446 0 2.1992-.2416 2.8517-.725.6041-.4471 1.0512-.9304 1.3171-1.4379h.1087v1.9333l3.0208.0121.0484-13.2675-3.0813-.0121-.0241 6.7063Zm10.9838 4.2292h-.1329l-3.3954-10.8992-3.2625-.0121 4.4346 13.2917 4.5675.0121 4.5191-13.2554-3.2625-.0121-3.4679 10.875ZM73.6784 13.41c-1.0392-.5559-2.2233-.8459-3.5404-.8459h-.0242c-1.305 0-2.4771.278-3.5041.8217-1.0392.5438-1.8609 1.3413-2.453 2.3442-.592 1.0029-.9062 2.2233-.9062 3.6008v.3988c0 1.3896.29 2.61.87 3.6371.5921 1.015 1.4017 1.8125 2.4408 2.3562 1.015.5438 2.2113.8217 3.5284.8217h.0241c1.305 0 2.4771-.2659 3.5163-.8096 1.0391-.5438 1.8729-1.3292 2.465-2.3442.592-1.015.9062-2.2233.9062-3.6129v-.3987c0-1.3896-.29-2.598-.87-3.613-.5921-.9908-1.4258-1.7883-2.4529-2.3562Zm-3.5767 10.3675c-1.1116 0-2.0179-.3746-2.7187-1.0875-.6888-.725-1.0513-1.7279-1.0513-3.0088v-.2416c0-1.2809.3746-2.2838 1.0634-3.0088.6887-.7129 1.607-1.0633 2.7066-1.0633v-.1934l.0121.1934c1.1358 0 2.0663.3746 2.755 1.0875.6888.725 1.0392 1.7279 1.0392 3.0087v.2417c0 1.2808-.3746 2.2838-1.0634 3.0088-.6887.7129-1.6191 1.0633-2.7429 1.0633Zm18.7777-9.0383h-.1087c-.1934-.3263-.4713-.6525-.8096-.9546-.3867-.3384-.87-.6163-1.4621-.8459-.5921-.2175-1.3171-.3262-2.175-.3383h-.0242c-1.1116 0-2.1266.2658-3.057.7975-.9305.5317-1.6917 1.3292-2.2476 2.3442-.5558 1.015-.8458 2.2475-.8458 3.6491v.3988c0 1.4137.2779 2.6583.8458 3.6612.5559 1.015 1.3171 1.8005 2.2476 2.3442.9304.5438 1.9454.8096 3.045.8217h.0241c1.2688 0 2.2717-.2417 2.9725-.7129.6525-.4471 1.1721-.9305 1.5104-1.4742h.1209v1.8367l3.0208.012.0604-18.66872-3.0812-.01208-.0363 7.1413Zm-3.8183.4591.0121.1934c1.1237 0 2.0541.3745 2.755 1.0754.7129.7129 1.0633 1.74 1.0633 3.0571v.2416c0 1.3292-.3746 2.3563-1.0875 3.0692-.7129.7129-1.6433 1.0633-2.7429 1.0633-1.0875 0-2.0058-.3746-2.7188-1.0754-.7129-.7129-1.0754-1.74-1.0633-3.0692v-.2416c0-1.3171.3746-2.3321 1.0875-3.045.7129-.7129 1.6192-1.0634 2.7188-1.0634l-.0242-.2054Zm21.0489.6767c-.592-1.015-1.401-1.8125-2.453-2.3563-1.039-.5558-2.223-.8458-3.54-.8458h-.024c-1.3052 0-2.4773.2779-3.5043.8217-1.0392.5437-1.8609 1.3412-2.453 2.3441-.592 1.003-.9062 2.2234-.9062 3.6009v.3987c0 1.3896.29 2.61.87 3.6371.5921 1.015 1.4017 1.8125 2.4408 2.3563 1.015.5437 2.2113.8216 3.5287.8216h.024c1.305 0 2.477-.2658 3.516-.8096 1.039-.5437 1.873-1.3291 2.465-2.3441.592-1.015.894-2.2234.894-3.6129V19.5c.024-1.3896-.266-2.5979-.858-3.625Zm-6.029 7.9992c-1.1119 0-2.0182-.3746-2.719-1.0875-.6888-.725-1.0513-1.728-1.0513-3.0088v-.2417c0-1.2808.3746-2.2837 1.0634-3.0087.6887-.7129 1.6071-1.0633 2.7069-1.0633v-.1934l.012.1934c1.136 0 2.066.3745 2.755 1.0875.689.725 1.039 1.7279 1.039 3.0087v.2417c0 1.2808-.375 2.2837-1.063 3.0087-.689.7129-1.607 1.0634-2.743 1.0634Z" fill="#000"/>
    <path d="M20.7658 33.4684c4.7246-1.4863 7.9267-5.8725 7.9146-10.8388L28.62 7.4288c0-1.64334-1.595-2.80334-3.1658-2.32L7.69167 10.7034C6.67667 11.0296 6 11.9721 6 13.0355l.02417 9.6666c.03625 7.6367 7.45543 13.0621 14.74163 10.7663Z" fill="#8979E8"/>
  </g>
  <defs>
    <clipPath id="a">
      <path fill="#fff" transform="translate(6 5)" d="M0 0h100.98v29H0z"/>
    </clipPath>
  </defs>
</svg>